<svg xmlns="http://www.w3.org/2000/svg" viewBox="0 0 512 512">
  <defs>
    <linearGradient id="mark-bg" x1="80" y1="56" x2="432" y2="456" gradientUnits="userSpaceOnUse">
      <stop stop-color="#ffffff" />
      <stop offset="1" stop-color="#f3f0ff" />
    </linearGradient>
    <linearGradient id="ai-sweep" x1="93" y1="367" x2="413" y2="171" gradientUnits="userSpaceOnUse">
      <stop stop-color="#2ecc71" />
      <stop offset="0.46" stop-color="#2ecc71" />
      <stop offset="1" stop-color="#8b5cf6" />
    </linearGradient>
    <linearGradient id="purple-sweep" x1="153" y1="404" x2="421" y2="194" gradientUnits="userSpaceOnUse">
      <stop stop-color="#8b5cf6" />
      <stop offset="1" stop-color="#6d28d9" />
    </linearGradient>
    <filter id="soft-shadow" x="-20%" y="-20%" width="140%" height="140%">
      <feDropShadow dx="0" dy="18" stdDeviation="18" flood-color="#1e1b4b" flood-opacity="0.14" />
    </filter>
  </defs>

  <rect width="512" height="512" rx="112" fill="url(#mark-bg)" />

  <g filter="url(#soft-shadow)">
    <path
      d="M170 126h156l68 68v210c0 34-22 56-56 56H174c-34 0-56-22-56-56V178c0-30 22-52 52-52Z"
      fill="#ffffff"
    />
    <path
      d="M170 126h156l68 68v210c0 34-22 56-56 56H174c-34 0-56-22-56-56V178c0-30 22-52 52-52Z"
      fill="none"
      stroke="#1e1b4b"
      stroke-width="34"
      stroke-linejoin="round"
    />
    <path
      d="M326 126v64c0 18 12 30 30 30h38"
      fill="none"
      stroke="#1e1b4b"
      stroke-width="34"
      stroke-linecap="round"
      stroke-linejoin="round"
    />
    <path
      d="M189 243h154"
      fill="none"
      stroke="#1e1b4b"
      stroke-width="22"
      stroke-linecap="round"
    />
  </g>

  <path
    d="M95 359c40-67 130-88 217-126 50-21 85-49 107-90-8 69-61 121-143 158-75 34-126 67-149 122-25-12-38-33-32-64Z"
    fill="url(#ai-sweep)"
  />
  <path
    d="M142 421c22-67 88-96 156-126 58-26 98-58 122-103-5 74-55 134-137 177-42 22-70 44-86 74-26 0-45-7-55-22Z"
    fill="url(#purple-sweep)"
  />
  <path
    d="M126 399c17-45 59-71 116-95 20-8 47-19 70-32-81 55-127 98-141 155-18-4-33-13-45-28Z"
    fill="#ffffff"
    opacity="0.92"
  />

  <path
    d="M372 70l13 39 39 13-39 13-13 39-13-39-39-13 39-13 13-39Z"
    fill="#8b5cf6"
  />
  <path
    d="M423 154l10 29 29 10-29 10-10 29-10-29-29-10 29-10 10-29Z"
    fill="#8b5cf6"
  />
</svg>
